<svg width="24" height="24" viewBox="0 0 24 24" fill="none" xmlns="http://www.w3.org/2000/svg">
<path d="M11.5375 12.38H14.0604C14.7778 12.38 15.2321 11.9855 15.2321 11.3518C15.2321 10.7539 14.7778 10.3235 14.0604 10.3235H11.5375C11.4538 10.3235 11.3821 10.3952 11.3821 10.467V12.2365C11.394 12.3202 11.4538 12.38 11.5375 12.38Z" fill="#313440"/>
<path d="M11.5375 16.4573H14.1441C14.9452 16.4573 15.4234 16.0508 15.4234 15.3334C15.4234 14.7117 14.9691 14.2095 14.1441 14.2095H11.5375C11.4538 14.2095 11.3821 14.2812 11.3821 14.353V16.3019C11.394 16.3975 11.4538 16.4573 11.5375 16.4573Z" fill="#313440"/>
<path d="M20.7679 1.04515L13.3069 8.48218H14.5265C16.4276 8.48218 17.5515 9.67785 17.5515 10.9811C17.5515 12.0094 16.8581 12.7627 16.1167 13.0974C15.9972 13.1453 15.9972 13.3127 16.1287 13.3605C16.9896 13.6953 17.5994 14.592 17.5994 15.6442C17.5994 17.1268 16.607 18.3105 14.6819 18.3105H9.39711C9.31341 18.3105 9.24167 18.2388 9.24167 18.1671V12.5355L1.05138 20.6899C0.943768 20.7975 1.01551 20.9888 1.17094 20.9888H20.8635C20.9353 20.9888 20.995 20.929 20.995 20.8573V1.15276C21.0309 1.02124 20.8635 0.949499 20.7679 1.04515Z" fill="#313440"/>
</svg>
