<svg width="20" height="20" viewBox="0 0 20 20" fill="none" xmlns="http://www.w3.org/2000/svg">
<path d="M19.7679 0.0451521L12.3069 7.48218H13.5265C15.4276 7.48218 16.5515 8.67785 16.5515 9.98112C16.5515 11.0094 15.8581 11.7627 15.1167 12.0974C14.9972 12.1453 14.9972 12.3127 15.1287 12.3605C15.9896 12.6953 16.5994 13.592 16.5994 14.6442C16.5994 16.1268 15.607 17.3105 13.6819 17.3105H8.39711C8.31341 17.3105 8.24167 17.2388 8.24167 17.1671V11.5355L0.0513782 19.6899C-0.0562315 19.7975 0.0155083 19.9888 0.170945 19.9888H19.8635C19.9353 19.9888 19.995 19.929 19.995 19.8573V0.152761C20.0309 0.0212381 19.8635 -0.050501 19.7679 0.0451521Z" fill="#313440"/>
</svg>
